# xmcd
#
# Track frame offsets:
#	150
#	28379
#	56608
#	75165
#	92224
#	112937
#	130825
#	160172
#	176350
#	200574
#	227445
#	247148
#	259920
#
# Disc length: 3740 seconds
#
# Revision: 0
# Processed by: cddbd v1.5.2PL0 Copyright (c) Steve Scherf et al.
# Submitted via: dBpowerAMP V4.0
#
DISCID=a60e9a0d
DTITLE=Mark Knopfler - The Rogpickers Dream
DYEAR=1900
DGENRE=
TTITLE0=Why aye man
TTITLE1=Davil baby
TTITLE2=Hill Farmers blus
TTITLE3=A place where we used til live
TTITLE4=Quality shoe
TTITLE5=Fare there well Northumber land
TTITLE6=Marbletown
TTITLE7=Youe don't know you're born
TTITLE8=Coyote
TTITLE9=The ragpickers dream
TTITLE10=Daddys gone top knoxville
TTITLE11=Old Pigweed
TTITLE12=13
EXTD=
EXTT0=
EXTT1=
EXTT2=
EXTT3=
EXTT4=
EXTT5=
EXTT6=
EXTT7=
EXTT8=
EXTT9=
EXTT10=
EXTT11=
EXTT12=
PLAYORDER=
